<?xml version="1.0" encoding="UTF-8"?>
<svg id="Capa_1" xmlns="http://www.w3.org/2000/svg" version="1.1" viewBox="0 0 60 60">
  <!-- Generator: Adobe Illustrator 29.7.1, SVG Export Plug-In . SVG Version: 2.1.1 Build 8)  -->
  <path d="M27.28,41.67c.16-.29.16-.34-.07-.64-.33-.45-.76-.48-1.07-.08-.29.37-.3.49-.06.84.27.38.96.32,1.2-.12Z"/>
  <path d="M3.2,29.88c.28-.28.29-.55.05-.9-.2-.29-.83-.36-1.07-.12-.2.2-.17.79.05,1.04.25.28.68.27.97-.02Z"/>
  <path d="M44.87,30.47c.22-.14,1.7-2.06,1.94-2.51.16-.31.17-.4.03-.7-.13-.27-.25-.34-.6-.37-.5-.04-.72.16-1.89,1.68-.73.95-.84,1.44-.4,1.8.28.23.66.27.92.11Z"/>
  <path d="M50.83,27.32c-1.74-2.6-2.74-3.63-3.89-3.97-.63-.18-5.01-.52-6.81-.52-.56,0-1.04-.05-1.08-.1-.04-.06-.11-1.06-.18-2.22-.12-2.23-.29-3.04-.71-3.42-.22-.2-.57-.23-3.96-.32-2.05-.06-7.58-.11-12.29-.12-10.2-.02-13.03.13-13.49.68-.16.2-.31,1.38-.41,3.21l-.07,1.25-2-.03c-1.83-.03-2.02,0-2.25.19-.33.3-.32.88.01,1.19.23.22.46.25,2.26.33l2,.08v1.59l-2.58-.07c-2.55-.07-2.58-.07-2.9.19-.43.34-.41.97.04,1.3.26.2.58.23,2.86.29,2.89.08,2.69,0,2.69,1.09v.53l-1.18.07c-1.55.09-1.98.38-1.78,1.18.11.46.47.56,1.78.53l1.19-.03-.07,1.69-.82-.04c-1.36-.06-1.95.34-1.73,1.2.1.42.69.63,1.72.63h.85l.08,1.75c.04.96.08,2.79.08,4.06,0,2.3,0,2.3.29,2.59.26.26.36.28,1.01.23.4-.03,1.09-.09,1.54-.12l.82-.06.15.58c.18.7.89,1.78,1.45,2.23.63.5,1.5.9,2.28,1.04,2.1.39,4.46-1,5.14-3.04l.18-.55.78-.07c.43-.04,1.18-.07,1.67-.07,1.01,0,1.4-.13,1.58-.54.14-.3.02-.77-.24-.93-.08-.05-.95-.12-1.93-.16l-1.78-.06-.2-.58c-1.38-4.09-6.74-4.53-8.64-.72-.22.44-.41.9-.41,1.01,0,.21-.6.35-1.55.35h-.47l-.03-3.47c-.02-2.69,0-3.48.12-3.48.08,0,1.23-.05,2.56-.11,2.1-.09,2.46-.13,2.72-.33.4-.29.45-.83.12-1.13-.23-.21-.43-.22-2.87-.22h-2.62l-.03-.84-.03-.84h.57c1.09,0,1.65-.45,1.4-1.12-.14-.37-.47-.5-1.26-.5h-.7v-1.63h2.23c1.22.02,2.31,0,2.42-.05.29-.11.46-.59.33-.93-.15-.41-.76-.63-1.71-.63-.44,0-1.35-.03-2.03-.08l-1.23-.08v-1.64h1.32c1.46,0,1.81-.14,1.81-.74,0-.64-.3-.77-1.9-.88l-1.26-.08.07-1.62c.04-.89.09-1.64.12-1.67.1-.1,5.66-.26,9.1-.26,3.58,0,17.95.31,18.04.39.13.13.17,5.04.09,12.92l-.09,8.74h-3.86c-3.76,0-3.87,0-4.1.24-.33.33-.34.92-.01,1.24q.25.25,6.31.28l6.06.03.07.43c.25,1.53,1.76,3.1,3.43,3.55,1.69.45,3.54-.08,4.72-1.36.49-.53.98-1.39,1.12-1.96.08-.32.08-.32,1.09-.32,1.55,0,2.28-.44,2.59-1.55.24-.86-.23-7.19-.62-8.41-.18-.54-1.86-3.42-3.07-5.23ZM13.95,39.93c1.06-1.98,3.97-1.96,5.05.03.25.46.32.74.32,1.36.02,1.26-.51,2.16-1.58,2.65-1.71.8-3.74-.17-4.11-1.97-.16-.77-.07-1.33.32-2.07ZM42.64,24.69c.08-.08,3.33.22,3.79.34.56.15,1.22.84,2.35,2.43.9,1.27,2.61,4,2.77,4.42.07.19-.14.2-3.61.18-2.03-.01-4.07-.04-4.53-.06l-.83-.04-.08-.42c-.08-.43.04-6.76.13-6.85ZM49.01,42.67c-.23.56-.98,1.34-1.52,1.59-.53.24-1.72.27-2.37.06-.57-.18-1.54-1.18-1.71-1.77-.22-.75-.18-1.75.1-2.32.3-.63,1.11-1.35,1.71-1.52,1.11-.33,2.46-.02,3.17.75.73.77,1.02,2.28.63,3.22ZM52.17,40.69c-1.2.14-1.18.15-1.4-.6-.38-1.31-1.48-2.46-2.89-3.05-.87-.36-2.44-.36-3.36,0-1.29.5-2.32,1.55-2.78,2.81l-.25.68h-1.07c-.59,0-1.16-.03-1.26-.07-.16-.06-.18-.88-.18-8.05v-7.98l1.79.07.06,4.23c.05,3.82.08,4.26.27,4.55.11.18.35.37.52.44.2.08,2.1.11,5.49.08l5.18-.04.06.35c.16.92.29,2.62.36,4.47l.08,2.04-.63.08Z"/>
  <path d="M47.15,30.42c.48.35,1.33.02,1.33-.52,0-.33-.45-.83-.75-.83-.67,0-1.09.97-.58,1.35Z"/>
</svg>