<?xml version="1.0" encoding="UTF-8"?>
<svg id="Capa_1" xmlns="http://www.w3.org/2000/svg" version="1.1" viewBox="0 0 60 60">
  <!-- Generator: Adobe Illustrator 29.7.1, SVG Export Plug-In . SVG Version: 2.1.1 Build 8)  -->
  <path d="M46.69,30.16c-.1,0-.19.09-.19.19s.09.19.19.19h.96c.1,0,.19-.09.19-.19s-.09-.19-.19-.19h-.96Z"/>
  <path d="M53.05,32.89c-1.55,0-2.81,1.26-2.81,2.81s1.26,2.81,2.81,2.81,2.81-1.26,2.81-2.81-1.26-2.81-2.81-2.81ZM53.05,38.12c-1.34,0-2.43-1.09-2.43-2.43s1.09-2.43,2.43-2.43,2.43,1.09,2.43,2.43-1.09,2.43-2.43,2.43Z"/>
  <path d="M53.05,34.3c-.77,0-1.4.63-1.4,1.4s.63,1.4,1.4,1.4,1.4-.63,1.4-1.4-.63-1.4-1.4-1.4ZM53.05,36.71c-.56,0-1.02-.46-1.02-1.02s.46-1.02,1.02-1.02,1.02.46,1.02,1.02-.46,1.02-1.02,1.02Z"/>
  <path d="M37.15,32.89c-1.55,0-2.81,1.26-2.81,2.81s1.26,2.81,2.81,2.81,2.81-1.26,2.81-2.81-1.26-2.81-2.81-2.81ZM37.15,38.12c-1.34,0-2.43-1.09-2.43-2.43s1.09-2.43,2.43-2.43,2.43,1.09,2.43,2.43-1.09,2.43-2.43,2.43Z"/>
  <path d="M37.15,34.3c-.77,0-1.4.63-1.4,1.4s.63,1.4,1.4,1.4,1.4-.63,1.4-1.4-.63-1.4-1.4-1.4ZM37.15,36.72c-.56,0-1.02-.46-1.02-1.02s.46-1.02,1.02-1.02,1.02.46,1.02,1.02-.46,1.02-1.02,1.02Z"/>
  <path d="M30.75,32.89c-1.55,0-2.81,1.26-2.81,2.81s1.26,2.81,2.81,2.81,2.81-1.26,2.81-2.81-1.26-2.81-2.81-2.81ZM30.75,38.12c-1.34,0-2.43-1.09-2.43-2.43s1.09-2.43,2.43-2.43,2.43,1.09,2.43,2.43-1.09,2.43-2.43,2.43Z"/>
  <path d="M30.75,34.3c-.77,0-1.4.63-1.4,1.4s.63,1.4,1.4,1.4,1.4-.63,1.4-1.4-.63-1.4-1.4-1.4ZM30.75,36.72c-.56,0-1.02-.46-1.02-1.02s.46-1.02,1.02-1.02,1.02.46,1.02,1.02-.46,1.02-1.02,1.02Z"/>
  <path d="M58.94,34.05h-.28v-2.47c0-.89-.51-1.14-1.06-1.27-.5-.12-4.97-1.33-5.68-1.52l-1.29-3.48h.47c.1,0,.19-.09.19-.19,0-1.12-.91-2.03-2.03-2.03h-6.24c-.38,0-.69.31-.69.69v10.28h-1.68c-.1,0-.19.09-.19.19s.09.19.19.19h8.89c.1,0,.19-.09.19-.19s-.09-.19-.19-.19h-6.83v-3.51h1.65c.1,0,.19-.09.19-.19s-.09-.19-.19-.19h-1.65v-4.86h1.65c.1,0,.19-.09.19-.19s-.09-.19-.19-.19h-1.65v-1.15c0-.17.14-.31.31-.31h6.24c.85,0,1.55.64,1.64,1.46h-4.69c-.1,0-.19.09-.19.19v2.66c0,.75.61,1.36,1.36,1.36h4.2v2.98c0,.1.09.19.19.19s.19-.09.19-.19v-2.92c1.04.28,5.06,1.37,5.54,1.49.51.13.77.3.77.9v2.47h-1.72c-.1,0-.19.09-.19.19s.09.19.19.19h2.38s.06.03.06.06v2.06s-.03.06-.06.06h-2.26c-.1,0-.19.09-.19.19s.09.19.19.19h2.26c.24,0,.44-.2.44-.44v-2.06c0-.24-.2-.44-.44-.44ZM47.85,28.75v-1.96c0-.1-.09-.19-.19-.19s-.19.09-.19.19v1.96h-.08c-.54,0-.98-.44-.98-.98v-2.47h3.83l1.28,3.45h-3.66Z"/>
  <path d="M49.42,36.62h-8.64c-.1,0-.19.09-.19.19s.09.19.19.19h8.64c.1,0,.19-.09.19-.19s-.09-.19-.19-.19Z"/>
  <path d="M14.25,32.89c-1.55,0-2.81,1.26-2.81,2.81s1.26,2.81,2.81,2.81,2.81-1.26,2.81-2.81-1.26-2.81-2.81-2.81ZM14.25,38.12c-1.34,0-2.43-1.09-2.43-2.43s1.09-2.43,2.43-2.43,2.43,1.09,2.43,2.43-1.09,2.43-2.43,2.43Z"/>
  <path d="M14.25,34.3c-.77,0-1.4.63-1.4,1.4s.63,1.4,1.4,1.4,1.4-.63,1.4-1.4-.63-1.4-1.4-1.4ZM14.25,36.72c-.56,0-1.02-.46-1.02-1.02s.46-1.02,1.02-1.02,1.02.46,1.02,1.02-.46,1.02-1.02,1.02Z"/>
  <path d="M7.85,32.89c-1.55,0-2.81,1.26-2.81,2.81s1.26,2.81,2.81,2.81,2.81-1.26,2.81-2.81-1.26-2.81-2.81-2.81ZM7.85,38.12c-1.34,0-2.43-1.09-2.43-2.43s1.09-2.43,2.43-2.43,2.43,1.09,2.43,2.43-1.09,2.43-2.43,2.43Z"/>
  <path d="M7.85,34.3c-.77,0-1.4.63-1.4,1.4s.63,1.4,1.4,1.4,1.4-.63,1.4-1.4-.63-1.4-1.4-1.4ZM7.85,36.72c-.56,0-1.02-.46-1.02-1.02s.46-1.02,1.02-1.02,1.02.46,1.02,1.02-.46,1.02-1.02,1.02Z"/>
  <path d="M16.63,32.55c-.1,0-.19.09-.19.19s.09.19.19.19h11.74c.1,0,.19-.09.19-.19s-.09-.19-.19-.19h-11.74Z"/>
  <path d="M5.47,32.93c.1,0,.19-.09.19-.19s-.09-.19-.19-.19H1v-1.44h39.5c.1,0,.19-.09.19-.19v-10.65c0-.1-.09-.19-.19-.19H.81c-.1,0-.19.09-.19.19v12.47c0,.1.09.19.19.19h1.69v2.6c0,.1.09.19.19.19s.19-.09.19-.19v-2.6h2.6ZM1,20.46h39.31v10.27H1v-10.27Z"/>
  <path d="M2.91,21.48c-.1,0-.19.09-.19.19v7.85c0,.1.09.19.19.19s.19-.09.19-.19v-7.85c0-.1-.09-.19-.19-.19Z"/>
  <path d="M5,21.48c-.1,0-.19.09-.19.19v7.85c0,.1.09.19.19.19s.19-.09.19-.19v-7.85c0-.1-.09-.19-.19-.19Z"/>
  <path d="M7.08,21.48c-.1,0-.19.09-.19.19v7.85c0,.1.09.19.19.19s.19-.09.19-.19v-7.85c0-.1-.09-.19-.19-.19Z"/>
  <path d="M9.17,21.48c-.1,0-.19.09-.19.19v7.85c0,.1.09.19.19.19s.19-.09.19-.19v-7.85c0-.1-.09-.19-.19-.19Z"/>
  <path d="M11.26,21.48c-.1,0-.19.09-.19.19v7.85c0,.1.09.19.19.19s.19-.09.19-.19v-7.85c0-.1-.09-.19-.19-.19Z"/>
  <path d="M13.35,21.48c-.1,0-.19.09-.19.19v7.85c0,.1.09.19.19.19s.19-.09.19-.19v-7.85c0-.1-.09-.19-.19-.19Z"/>
  <path d="M15.44,21.48c-.1,0-.19.09-.19.19v7.85c0,.1.09.19.19.19s.19-.09.19-.19v-7.85c0-.1-.09-.19-.19-.19Z"/>
  <path d="M17.52,21.48c-.1,0-.19.09-.19.19v7.85c0,.1.09.19.19.19s.19-.09.19-.19v-7.85c0-.1-.09-.19-.19-.19Z"/>
  <path d="M19.61,21.48c-.1,0-.19.09-.19.19v7.85c0,.1.09.19.19.19s.19-.09.19-.19v-7.85c0-.1-.09-.19-.19-.19Z"/>
  <path d="M21.7,21.48c-.1,0-.19.09-.19.19v7.85c0,.1.09.19.19.19s.19-.09.19-.19v-7.85c0-.1-.09-.19-.19-.19Z"/>
  <path d="M23.79,21.48c-.1,0-.19.09-.19.19v7.85c0,.1.09.19.19.19s.19-.09.19-.19v-7.85c0-.1-.09-.19-.19-.19Z"/>
  <path d="M25.87,21.48c-.1,0-.19.09-.19.19v7.85c0,.1.09.19.19.19s.19-.09.19-.19v-7.85c0-.1-.09-.19-.19-.19Z"/>
  <path d="M27.96,21.48c-.1,0-.19.09-.19.19v7.85c0,.1.09.19.19.19s.19-.09.19-.19v-7.85c0-.1-.09-.19-.19-.19Z"/>
  <path d="M30.05,21.48c-.1,0-.19.09-.19.19v7.85c0,.1.09.19.19.19s.19-.09.19-.19v-7.85c0-.1-.09-.19-.19-.19Z"/>
  <path d="M32.14,21.48c-.1,0-.19.09-.19.19v7.85c0,.1.09.19.19.19s.19-.09.19-.19v-7.85c0-.1-.09-.19-.19-.19Z"/>
  <path d="M34.23,21.48c-.1,0-.19.09-.19.19v7.85c0,.1.09.19.19.19s.19-.09.19-.19v-7.85c0-.1-.09-.19-.19-.19Z"/>
  <path d="M36.31,21.48c-.1,0-.19.09-.19.19v7.85c0,.1.09.19.19.19s.19-.09.19-.19v-7.85c0-.1-.09-.19-.19-.19Z"/>
  <path d="M38.4,21.48c-.1,0-.19.09-.19.19v7.85c0,.1.09.19.19.19s.19-.09.19-.19v-7.85c0-.1-.09-.19-.19-.19Z"/>
</svg>