<?xml version="1.0" encoding="UTF-8"?>
<svg id="Capa_1" xmlns="http://www.w3.org/2000/svg" version="1.1" viewBox="0 0 60 60">
  <!-- Generator: Adobe Illustrator 29.7.1, SVG Export Plug-In . SVG Version: 2.1.1 Build 8)  -->
  <path d="M27.82,39.9c-.92.26-1.22,1.06-.58,1.57.33.26.51.26,1.17.01,1.24-.47.71-1.93-.58-1.58Z"/>
  <path d="M29.32,28.23c-.39-.19-.91,0-1.02.36-.12.37.05.83.35.94.39.16.49.15.8-.07.41-.28.33-1.02-.12-1.24Z"/>
  <path d="M25.16,17.3c-.45-.09-.7,0-6.07,2.36-1.86.81-3.8,1.65-4.32,1.85-1.15.46-1.37.64-1.37,1.15,0,.74.21.83,3.16,1.4,1.11.21,2.07.43,2.15.5.08.06.17.27.21.47.15.77.93,1.1,1.42.61.3-.3.31-.86.06-1.59-.34-.97-.72-1.21-2.38-1.49l-.88-.15,3.09-1.29c1.7-.71,3.11-1.28,3.13-1.26.02.01-.4,1.2-.94,2.63-1.6,4.31-2.32,6.41-2.32,6.8,0,.21.11.48.24.61.24.24.66.31,1.03.17.32-.12.6-.8,1.78-4.26,1.27-3.72,2.23-6.35,2.56-7.01.13-.25.23-.55.23-.67,0-.37-.35-.75-.77-.83Z"/>
  <path d="M51.49,52.43c.47-.47.17-1.22-.5-1.22s-1,.88-.45,1.27c.36.26.65.24.94-.05Z"/>
  <path d="M22.65,42.35c0,.21.1.48.21.61.17.19.32.22.76.17,1.16-.14,1.66-.59,1.36-1.24-.41-.9-2.33-.52-2.33.46Z"/>
  <path d="M45.26,38.74c-.22.49.08.91.88,1.24.96.39,1.7.14,1.7-.58,0-.42-.27-.65-1.1-.97-.79-.3-1.24-.2-1.48.31Z"/>
  <path d="M40.55,36.78c-.28.28-.22.92.1,1.18.36.29.75.29,1.15-.03.44-.34.43-.86-.01-1.21-.37-.29-.92-.26-1.24.06Z"/>
  <path d="M57.76,23.25c-.1-1-.48-1.31-2.92-2.32-1.77-.73-5.77-2.25-8.34-3.15-4.79-1.69-7.84-2.71-8.1-2.71-.54,0-2.9.94-6.24,2.49-.82.38-1.52.68-1.54.65-.02-.02-.15-.27-.29-.55-.42-.83-1.68-2.41-2.43-3.05-2.15-1.84-4.44-2.78-7.15-2.92-5.62-.29-10.71,3.73-11.88,9.38-.75,3.62.34,7.49,2.86,10.15,1.85,1.96,3.94,3.1,6.47,3.56l.86.15.08,1.46c.04.8.08,2.36.08,3.46v2l-.48-.08c-.42-.07-.53-.04-.8.24-.25.25-.3.39-.24.65.12.48.26.6.91.81l.58.19.08.74c.04.41.08,2.44.08,4.5,0,3.14-.03,3.76-.17,3.76-.09,0-1.34-.49-2.77-1.08-3.21-1.33-8.64-3.46-10.75-4.21-2.35-.84-2.13-.68-2.13-1.56,0-.42-.11-3.64-.24-7.15-.44-11.9-.65-21.06-.48-21.06.04,0,1.11.38,2.39.85,1.28.47,2.49.85,2.69.85.39,0,.75-.36.75-.75,0-.52-.54-.83-3.51-1.99-1.63-.64-3.06-1.16-3.19-1.16s-.38.13-.56.29l-.34.3-.04,5.64c-.02,3.51.03,7.48.15,10.51.1,2.68.25,6.65.32,8.83.07,2.18.18,4.54.23,5.26.1,1.45.24,1.72.91,1.86.53.12,3.89,1.43,8.84,3.46,9.19,3.77,8.52,3.57,9.93,2.95,3.19-1.39,15.68-5.89,17.15-6.18.53-.1,2.56.63,8.38,3.05,1.22.51,1.69.49,2.02-.09.16-.29.16-.37-.02-.74-.17-.35-.36-.49-1.27-.87-1.39-.58-5.93-2.28-7.05-2.63l-.86-.27-.08-9.08c-.04-4.99-.14-11.65-.21-14.78-.07-3.14-.11-5.73-.07-5.76.08-.08,12.28,4.46,14.71,5.47,1.47.61,1.81.8,1.92,1.06.32.81.7,17.24.56,24.68l-.09,4.77-1.45-.51c-1.37-.48-1.47-.5-1.78-.32-.44.25-.52.94-.16,1.27.13.12,1.08.54,2.11.93,1.02.39,1.99.71,2.14.72.51,0,.74-.22.95-.93.18-.62.19-1.72.13-11.47-.07-10.93-.2-14.93-.63-19.58ZM35.6,47.3c-2.83.9-7.44,2.61-11.27,4.16h0c-1.49.61-2.81,1.14-2.93,1.17-.2.06-.21-.23-.21-5.09,0-4.75-.12-9.16-.31-11.64l-.08-1h.37c1.47,0,4.05-.97,5.7-2.14,1.27-.9,1.57-1.54.97-2.1-.43-.41-.81-.33-1.74.36-1.08.8-2.23,1.38-3.42,1.72-1.36.39-3.71.38-5.08,0-3.34-.95-5.89-3.55-6.77-6.91-.36-1.38-.36-3.52,0-4.9.63-2.4,2.13-4.5,4.13-5.8,1.65-1.07,2.77-1.41,4.9-1.49,1.42-.06,1.79-.03,2.67.19,3.68.93,6.5,3.89,7.17,7.49.19,1.02.16,3.07-.05,4.08-.2.94-.12,1.37.29,1.58,1.03.55,1.66-.54,1.8-3.16.06-1.17-.09-2.64-.4-3.73-.06-.22.03-.31.64-.59,1.11-.51,5.41-2.28,5.45-2.23.03.04.32,16.44.31,18.13v1.05s-.58.21-.58.21c-.78.29-1,.51-1,.97,0,.61.35.84,1.09.74l.61-.08v1.31c0,.72.04,2.57.08,4.11l.08,2.8-2.42.77Z"/>
  <path d="M31.66,38.63c-.57.48-.45,1.19.24,1.41.22.07.9-.1,1.37-.34.42-.22.55-.68.29-1.07-.36-.56-1.23-.55-1.9,0Z"/>
  <path d="M12.73,40.81c.56-.56.31-1.07-.72-1.47-.67-.25-1.08-.14-1.31.37-.21.45.04.88.66,1.16.69.31,1.02.3,1.37-.06Z"/>
  <path d="M16.56,41.61c0-.8-1.28-1.14-1.73-.46-.18.27-.09.7.2.99.57.57,1.53.24,1.53-.54Z"/>
</svg>