<?xml version="1.0" encoding="UTF-8"?>
<svg id="Capa_1" xmlns="http://www.w3.org/2000/svg" version="1.1" viewBox="0 0 120 17.29">
  <!-- Generator: Adobe Illustrator 29.7.1, SVG Export Plug-In . SVG Version: 2.1.1 Build 8)  -->
  <defs>
    <style>
      .st0 {
        fill: #001b43;
      }
    </style>
  </defs>
  <g>
    <path class="st0" d="M1.59,1.54h3.97c1.1,0,1.94.32,2.53.96.5.54.74,1.26.74,2.15v.03c0,.76-.17,1.38-.52,1.86-.34.48-.79.83-1.35,1.06l2.12,3.36h-2.23l-1.86-3.01h-1.5v3.01h-1.91V1.54ZM5.44,6.11c.47,0,.83-.12,1.09-.36.25-.24.38-.56.38-.97v-.03c0-.45-.13-.78-.4-1.01-.27-.22-.63-.34-1.1-.34h-1.9v2.7h1.94Z"/>
    <path class="st0" d="M10.56,1.54h6.54v1.84h-4.65v1.91h4.09v1.84h-4.09v1.98h4.72v1.84h-6.6V1.54Z"/>
    <path class="st0" d="M21.85,1.47h1.76l3.72,9.48h-2l-.79-2.11h-3.67l-.79,2.11h-1.95l3.72-9.48ZM23.86,7.02l-1.15-3.05-1.15,3.05h2.31Z"/>
    <path class="st0" d="M28.68,1.54h1.91v7.55h4.33v1.87h-6.24V1.54Z"/>
    <path class="st0" d="M42.11,3.45h-2.64v-1.91h7.2v1.91h-2.64v7.51h-1.91V3.45Z"/>
    <path class="st0" d="M48.12,1.54h3.97c1.1,0,1.94.32,2.53.96.5.54.74,1.26.74,2.15v.03c0,.76-.17,1.38-.52,1.86-.34.48-.79.83-1.35,1.06l2.12,3.36h-2.23l-1.86-3.01h-1.5v3.01h-1.91V1.54ZM51.97,6.11c.47,0,.83-.12,1.09-.36.25-.24.38-.56.38-.97v-.03c0-.45-.13-.78-.4-1.01-.27-.22-.63-.34-1.1-.34h-1.9v2.7h1.94Z"/>
    <path class="st0" d="M60.07,1.47h1.76l3.72,9.48h-2l-.79-2.11h-3.67l-.79,2.11h-1.95l3.72-9.48ZM62.08,7.02l-1.15-3.05-1.15,3.05h2.31Z"/>
    <path class="st0" d="M66.9,1.54h1.76l4.07,5.8V1.54h1.88v9.42h-1.62l-4.21-5.99v5.99h-1.89V1.54Z"/>
    <path class="st0" d="M79.8,11.09c-.66,0-1.31-.12-1.95-.37-.64-.25-1.21-.63-1.74-1.14l1.13-1.47c.4.35.8.63,1.22.83.42.21.88.31,1.37.31.4,0,.71-.08.92-.24s.33-.37.33-.65v-.03c0-.13-.02-.25-.07-.36-.05-.1-.13-.2-.26-.29s-.31-.18-.54-.27-.53-.18-.89-.28c-.44-.12-.84-.25-1.19-.39-.36-.14-.66-.32-.91-.53-.25-.21-.44-.47-.58-.79-.14-.31-.21-.7-.21-1.17v-.03c0-.43.07-.82.22-1.16s.36-.64.62-.89.59-.44.96-.58c.37-.13.78-.2,1.23-.2.64,0,1.22.1,1.76.31.53.21,1.02.5,1.47.89l-.99,1.56c-.39-.29-.77-.51-1.14-.68-.37-.17-.74-.25-1.12-.25s-.65.08-.84.24c-.19.16-.28.35-.28.59v.03c0,.15.03.28.08.4.05.11.15.21.29.3.14.09.33.17.58.26.25.08.55.17.93.28.44.13.83.27,1.18.42.34.16.63.35.87.56.24.22.41.48.54.77.12.3.18.65.18,1.06v.03c0,.47-.08.88-.23,1.24s-.37.67-.65.91c-.28.25-.61.44-1,.57-.39.13-.82.2-1.29.2Z"/>
    <path class="st0" d="M84.64,1.54h3.55c.52,0,.99.08,1.4.24.41.16.76.38,1.04.67.29.29.5.63.66,1.03.15.4.23.84.23,1.33v.03c0,.55-.09,1.03-.27,1.44s-.43.76-.75,1.04c-.32.28-.69.49-1.12.63-.43.14-.88.21-1.37.21h-1.45v2.83h-1.91V1.54ZM88.07,6.29c.48,0,.85-.14,1.12-.41.27-.27.4-.61.4-1.02v-.03c0-.47-.14-.82-.42-1.06s-.66-.36-1.14-.36h-1.48v2.88h1.52Z"/>
    <path class="st0" d="M97.15,11.12c-.67,0-1.29-.13-1.85-.38-.56-.26-1.05-.6-1.46-1.04-.41-.43-.73-.95-.96-1.53-.23-.59-.34-1.22-.34-1.89v-.03c0-.67.12-1.3.35-1.89.23-.59.55-1.1.96-1.55.41-.44.9-.79,1.46-1.05.57-.26,1.19-.38,1.86-.38s1.29.13,1.85.38c.56.26,1.05.6,1.46,1.04s.73.95.96,1.53c.23.59.34,1.22.34,1.89v.03c0,.67-.12,1.3-.35,1.89-.23.59-.55,1.1-.96,1.55-.41.44-.9.79-1.46,1.05-.57.25-1.19.38-1.86.38ZM97.18,9.21c.38,0,.73-.08,1.05-.23s.6-.36.82-.63c.23-.27.41-.58.54-.94.13-.35.19-.73.19-1.14v-.03c0-.4-.06-.78-.19-1.14-.13-.36-.31-.67-.55-.94s-.52-.48-.84-.64c-.32-.16-.67-.24-1.05-.24s-.74.08-1.06.23c-.32.15-.59.36-.82.63-.23.27-.41.58-.54.94-.13.35-.19.73-.19,1.14v.03c0,.4.06.79.19,1.14.13.36.31.67.55.94s.51.48.83.64c.32.16.67.24,1.06.24Z"/>
    <path class="st0" d="M103.48,1.54h3.97c1.1,0,1.94.32,2.53.96.5.54.74,1.26.74,2.15v.03c0,.76-.17,1.38-.52,1.86-.34.48-.79.83-1.35,1.06l2.12,3.36h-2.23l-1.86-3.01h-1.5v3.01h-1.91V1.54ZM107.33,6.11c.47,0,.83-.12,1.09-.36s.38-.56.38-.97v-.03c0-.45-.13-.78-.4-1.01-.26-.22-.63-.34-1.1-.34h-1.9v2.7h1.94Z"/>
    <path class="st0" d="M114.48,3.45h-2.64v-1.91h7.2v1.91h-2.64v7.51h-1.91V3.45Z"/>
  </g>
  <g>
    <path class="st0" d="M17.59,14.36h-.89v-.46h2.27v.46h-.89v2.34h-.5v-2.34Z"/>
    <path class="st0" d="M19.66,13.91h1.25c.35,0,.63.1.81.28.15.15.23.36.23.6h0c0,.47-.28.74-.66.86l.76,1.06h-.58l-.69-.98h-.62v.98h-.49v-2.8ZM20.87,15.29c.35,0,.58-.18.58-.47h0c0-.31-.22-.47-.58-.47h-.72v.94h.72Z"/>
    <path class="st0" d="M23.7,13.89h.46l1.23,2.82h-.52l-.28-.68h-1.32l-.29.68h-.5l1.23-2.82ZM24.4,15.59l-.48-1.12-.48,1.12h.96Z"/>
    <path class="st0" d="M26.03,13.91h.46l1.5,1.94v-1.94h.48v2.8h-.41l-1.54-1.99v1.99h-.48v-2.8Z"/>
    <path class="st0" d="M29.16,16.3l.3-.35c.27.23.54.36.88.36.3,0,.5-.14.5-.35h0c0-.21-.11-.32-.63-.44-.6-.14-.93-.32-.93-.83h0c0-.49.4-.82.96-.82.41,0,.73.12,1.02.35l-.26.37c-.25-.19-.5-.29-.76-.29-.29,0-.46.15-.46.33h0c0,.22.13.32.67.45.59.14.9.36.9.82h0c0,.53-.41.84-1,.84-.43,0-.83-.15-1.17-.45Z"/>
    <path class="st0" d="M32.07,13.91h1.1c.66,0,1.06.37,1.06.94h0c0,.64-.5.96-1.12.96h-.56v.9h-.49v-2.8ZM33.13,15.36c.37,0,.6-.21.6-.5h0c0-.34-.24-.51-.6-.51h-.57v1.01h.57Z"/>
    <path class="st0" d="M34.78,15.31h0c0-.79.61-1.46,1.47-1.46s1.46.65,1.46,1.44h0c0,.8-.61,1.46-1.47,1.46s-1.46-.65-1.46-1.44ZM37.19,15.31h0c0-.55-.4-1-.95-1s-.94.44-.94.99h0c0,.55.4,1,.95,1s.94-.44.94-.98Z"/>
    <path class="st0" d="M38.46,13.91h1.25c.35,0,.63.1.81.28.15.15.23.36.23.6h0c0,.47-.28.74-.66.86l.76,1.06h-.58l-.69-.98h-.62v.98h-.49v-2.8ZM39.67,15.29c.35,0,.58-.18.58-.47h0c0-.31-.22-.47-.58-.47h-.72v.94h.72Z"/>
    <path class="st0" d="M42.19,14.36h-.89v-.46h2.27v.46h-.89v2.34h-.5v-2.34Z"/>
    <path class="st0" d="M44.25,13.91h2.07v.44h-1.58v.73h1.4v.44h-1.4v.75h1.6v.44h-2.09v-2.8Z"/>
    <path class="st0" d="M48.27,16.3l.3-.35c.27.23.54.36.88.36.3,0,.5-.14.5-.35h0c0-.21-.11-.32-.63-.44-.6-.14-.93-.32-.93-.83h0c0-.49.4-.82.96-.82.41,0,.73.12,1.02.35l-.26.37c-.25-.19-.5-.29-.76-.29-.29,0-.46.15-.46.33h0c0,.22.13.32.67.45.59.14.9.36.9.82h0c0,.53-.41.84-1,.84-.43,0-.83-.15-1.17-.45Z"/>
    <path class="st0" d="M51.17,13.91h2.07v.44h-1.58v.73h1.4v.44h-1.4v.75h1.6v.44h-2.09v-2.8Z"/>
    <path class="st0" d="M53.89,15.31h0c0-.79.6-1.46,1.44-1.46.49,0,.79.14,1.08.38l-.31.37c-.22-.18-.43-.3-.78-.3-.52,0-.91.45-.91.99h0c0,.58.38,1.01.95,1.01.26,0,.5-.08.68-.21v-.52h-.72v-.43h1.19v1.18c-.28.24-.67.44-1.17.44-.88,0-1.45-.62-1.45-1.44Z"/>
    <path class="st0" d="M57.27,15.52v-1.61h.49v1.59c0,.52.27.79.71.79s.7-.26.7-.78v-1.61h.49v1.59c0,.83-.47,1.25-1.2,1.25s-1.19-.42-1.19-1.23Z"/>
    <path class="st0" d="M60.5,13.91h1.25c.35,0,.63.1.81.28.15.15.23.36.23.6h0c0,.47-.28.74-.66.86l.76,1.06h-.58l-.69-.98h-.62v.98h-.49v-2.8ZM61.71,15.29c.35,0,.58-.18.58-.47h0c0-.31-.22-.47-.58-.47h-.72v.94h.72Z"/>
    <path class="st0" d="M63.43,15.31h0c0-.79.61-1.46,1.47-1.46s1.46.65,1.46,1.44h0c0,.8-.61,1.46-1.47,1.46s-1.46-.65-1.46-1.44ZM65.84,15.31h0c0-.55-.4-1-.95-1s-.94.44-.94.99h0c0,.55.4,1,.95,1s.94-.44.94-.98Z"/>
    <path class="st0" d="M66.73,17.08c.24-.05.36-.17.34-.38h-.21v-.55h.53v.47c0,.44-.21.63-.62.67l-.05-.21Z"/>
    <path class="st0" d="M69.36,16.3l.3-.35c.27.23.54.36.88.36.3,0,.5-.14.5-.35h0c0-.21-.11-.32-.63-.44-.6-.14-.93-.32-.93-.83h0c0-.49.4-.82.96-.82.41,0,.73.12,1.02.35l-.26.37c-.25-.19-.5-.29-.76-.29-.29,0-.46.15-.46.33h0c0,.22.13.32.67.45.59.14.9.36.9.82h0c0,.53-.41.84-1,.84-.43,0-.83-.15-1.17-.45Z"/>
    <path class="st0" d="M72.27,13.91h2.08v.44h-1.58v.73h1.4v.44h-1.4v.75h1.6v.44h-2.09v-2.8Z"/>
    <path class="st0" d="M75.11,13.91h1.25c.35,0,.63.1.81.28.15.15.23.36.23.6h0c0,.47-.28.74-.66.86l.75,1.06h-.58l-.69-.98h-.62v.98h-.49v-2.8ZM76.32,15.29c.35,0,.58-.18.58-.47h0c0-.31-.22-.47-.58-.47h-.72v.94h.72Z"/>
    <path class="st0" d="M77.84,13.91h.54l.84,2.15.84-2.15h.53l-1.16,2.82h-.44l-1.16-2.82Z"/>
    <path class="st0" d="M81.27,13.91h.49v2.8h-.49v-2.8Z"/>
    <path class="st0" d="M82.54,15.31h0c0-.8.6-1.46,1.44-1.46.52,0,.83.18,1.1.44l-.32.36c-.22-.21-.46-.35-.78-.35-.53,0-.92.44-.92.99h0c0,.56.39,1,.92,1,.34,0,.56-.14.8-.36l.32.32c-.29.3-.61.5-1.13.5-.82,0-1.42-.64-1.42-1.44Z"/>
    <path class="st0" d="M85.81,13.91h.49v2.8h-.49v-2.8Z"/>
    <path class="st0" d="M87.08,15.31h0c0-.79.61-1.46,1.47-1.46s1.46.65,1.46,1.44h0c0,.8-.61,1.46-1.47,1.46s-1.46-.65-1.46-1.44ZM89.49,15.31h0c0-.55-.4-1-.95-1s-.94.44-.94.99h0c0,.55.4,1,.95,1s.94-.44.94-.98Z"/>
    <path class="st0" d="M92.12,13.91h1.25c.35,0,.63.1.81.28.15.15.23.36.23.6h0c0,.47-.28.74-.66.86l.76,1.06h-.58l-.69-.98h-.62v.98h-.49v-2.8ZM93.34,15.29c.35,0,.58-.18.58-.47h0c0-.31-.22-.47-.58-.47h-.72v.94h.72Z"/>
    <path class="st0" d="M95.18,13.91h2.08v.44h-1.58v.73h1.4v.44h-1.4v.75h1.6v.44h-2.1v-2.8Z"/>
    <path class="st0" d="M99.01,13.89h.46l1.23,2.82h-.52l-.28-.68h-1.32l-.29.68h-.5l1.23-2.82ZM99.71,15.59l-.48-1.12-.48,1.12h.96Z"/>
    <path class="st0" d="M101.34,13.91h.49v2.35h1.47v.45h-1.96v-2.8Z"/>
  </g>
</svg>